# xmcd
#
# Track frame offsets: 
#        150
#        10814
#        23227
#        35633
#        47231
#        57944
#        71360
#        82498
#        94416
#        107407
#        121833
#        133758
#        144882
#        157810
#        168481
#        180002
#        190437
#        201617
#        213410
#        224283
#        235888
#        248712
#        259272
#        271852
#
# Disc length: 3782 seconds
#
# Revision: 0
# Processed by: cddbd v1.5.2PL0 Copyright (c) Steve Scherf et al.
# Submitted via: ExactAudioCopy v1.0b1
#
DISCID=5b0ec418
DTITLE=The Louvin Brothers - The Church Of Louvin
DYEAR=2011
DGENRE=Country
TTITLE0=Are You Washed In The Blood
TTITLE1=Nearer, My God, To Thee
TTITLE2=Wait A Little Longer, Please Jesus
TTITLE3=I Can't Say No
TTITLE4=I Won't Have To Cross Jordan Alone
TTITLE5=There's No Excuse
TTITLE6=This Little Light Of Mine
TTITLE7=Praying
TTITLE8=Thankful
TTITLE9=Lord, I'm Coming Home
TTITLE10=Last Chance To Pray
TTITLE11=I Steal Away And Pray
TTITLE12=The Family Who Prays (Shall Never Part)
TTITLE13=Born Again
TTITLE14=If We Forgot God
TTITLE15=Satan Lied To Me
TTITLE16=God Bless Her (Cause She's My Mother)
TTITLE17=Love Thy Neighbor As Thy Self
TTITLE18=Preach The Gospel
TTITLE19=Just Rehearsing
TTITLE20=Pray For Me
TTITLE21=Satan And The Saint
TTITLE22=Swing Low, Sweet Chariot
TTITLE23=Make Him A Soldier
EXTD=
EXTT0=
EXTT1=
EXTT2=
EXTT3=
EXTT4=
EXTT5=
EXTT6=
EXTT7=
EXTT8=
EXTT9=
EXTT10=
EXTT11=
EXTT12=
EXTT13=
EXTT14=
EXTT15=
EXTT16=
EXTT17=
EXTT18=
EXTT19=
EXTT20=
EXTT21=
EXTT22=
EXTT23=
PLAYORDER=
